<svg xmlns="http://www.w3.org/2000/svg" viewBox="0 0 100 100"><path fill="#000" d="M68 18H31c-7.168 0-13 5.832-13 13v38c0 7.168 5.832 13 13 13h37c7.168 0 13-5.832 13-13V31c0-7.169-5.832-13-13-13zm11 13v9H60V20h8c6.065 0 11 4.935 11 11zM59 41v19H40V41h19zm-19-1V20h19v20H40zm20 1h19v19H60V41zM20 31c0-6.065 4.935-11 11-11h8v20H20v-9zm19 10v19H20V41h19zm-8 39c-6.065 0-11-4.935-11-11v-8h19v19h-8zm9 0V61h19v19H40zm28 0h-8V61h19v8c0 6.065-4.935 11-11 11z"/><path fill="#FFF" d="M29.5 57c3.584 0 6.5-2.916 6.5-6.5S33.084 44 29.5 44 23 46.916 23 50.5s2.916 6.5 6.5 6.5zm0-12c3.033 0 5.5 2.468 5.5 5.5S32.533 56 29.5 56 24 53.532 24 50.5s2.467-5.5 5.5-5.5z"/><path fill="#FFF" d="M31.412 53.312a.497.497 0 0 0 .318-.114A3.492 3.492 0 0 0 33 50.5a.5.5 0 0 0-1 0c0 .748-.331 1.45-.907 1.927a.5.5 0 0 0 .319.885zM29.5 54a.5.5 0 0 0 0-1c-1.378 0-2.5-1.121-2.5-2.5s1.122-2.5 2.5-2.5a.5.5 0 0 0 0-1c-1.93 0-3.5 1.57-3.5 3.5s1.57 3.5 3.5 3.5zM72.5 50a.5.5 0 0 0-.5.5c0 .748-.331 1.45-.907 1.927a.5.5 0 0 0 .637.772A3.495 3.495 0 0 0 73 50.5a.5.5 0 0 0-.5-.5zM69.5 48a.5.5 0 0 0 0-1c-1.93 0-3.5 1.57-3.5 3.5s1.57 3.5 3.5 3.5a.5.5 0 0 0 0-1c-1.378 0-2.5-1.121-2.5-2.5s1.122-2.5 2.5-2.5zM32.5 30a.5.5 0 0 0-.5.5c0 .748-.331 1.45-.907 1.927a.5.5 0 0 0 .637.772A3.495 3.495 0 0 0 33 30.5a.5.5 0 0 0-.5-.5zM29.5 28a.5.5 0 0 0 0-1c-1.93 0-3.5 1.57-3.5 3.5s1.57 3.5 3.5 3.5a.5.5 0 0 0 0-1c-1.378 0-2.5-1.121-2.5-2.5s1.122-2.5 2.5-2.5zM52.5 70a.5.5 0 0 0-.5.5c0 .748-.331 1.45-.907 1.927a.5.5 0 0 0 .637.772A3.495 3.495 0 0 0 53 70.5a.5.5 0 0 0-.5-.5zM49.5 68a.5.5 0 0 0 0-1c-1.93 0-3.5 1.57-3.5 3.5s1.57 3.5 3.5 3.5a.5.5 0 0 0 0-1c-1.378 0-2.5-1.121-2.5-2.5s1.122-2.5 2.5-2.5z"/><path fill="#FFF" d="M49.5 64c-3.584 0-6.5 2.916-6.5 6.5s2.916 6.5 6.5 6.5 6.5-2.916 6.5-6.5-2.916-6.5-6.5-6.5zm0 12c-3.033 0-5.5-2.468-5.5-5.5s2.467-5.5 5.5-5.5 5.5 2.468 5.5 5.5-2.467 5.5-5.5 5.5zM69.5 44c-3.584 0-6.5 2.916-6.5 6.5s2.916 6.5 6.5 6.5 6.5-2.916 6.5-6.5-2.916-6.5-6.5-6.5zm0 12c-3.033 0-5.5-2.468-5.5-5.5s2.467-5.5 5.5-5.5 5.5 2.468 5.5 5.5-2.467 5.5-5.5 5.5zM29.5 24c-3.584 0-6.5 2.916-6.5 6.5s2.916 6.5 6.5 6.5 6.5-2.916 6.5-6.5-2.916-6.5-6.5-6.5zm0 12c-3.033 0-5.5-2.468-5.5-5.5s2.467-5.5 5.5-5.5 5.5 2.468 5.5 5.5-2.467 5.5-5.5 5.5z"/></svg>