<svg xmlns="http://www.w3.org/2000/svg" xmlns:xlink="http://www.w3.org/1999/xlink"><symbol id="sound" viewBox="0 0 80 80"><path fill="currentColor" d="M39 7c-2.023 0-3.645 1.55-3.902 3.508L20.547 27H13c-2.2 0-4 1.8-4 4v18c0 2.2 1.8 4 4 4h7.547l14.55 16.492C35.356 71.45 36.978 73 39 73c2.2 0 4-1.8 4-4V11c0-2.2-1.8-4-4-4Zm0 2c1.117 0 2 .883 2 2v58c0 1.117-.883 2-2 2s-2-.883-2-2v-.379l-1.621-1.84c.176.14.394.219.621.219.55 0 1-.45 1-1s-.45-1-1-1-1 .45-1 1c0 .188.05.367.152.527L21.453 51H13c-1.117 0-2-.883-2-2V31c0-1.117.883-2 2-2h8.453l13.7-15.527A.975.975 0 0 0 35 14c0 .55.45 1 1 1s1-.45 1-1-.45-1-1-1a.995.995 0 0 0-.621.219L37 11.379V11c0-1.117.883-2 2-2Zm23 5c-.55 0-1 .45-1 1s.45 1 1 1 1-.45 1-1-.45-1-1-1Zm-4 2c-.55 0-1 .45-1 1s.45 1 1 1 1-.45 1-1-.45-1-1-1Zm-22 1c-.55 0-1 .45-1 1s.45 1 1 1 1-.45 1-1-.45-1-1-1Zm18 1c-.55 0-1 .45-1 1s.45 1 1 1 1-.45 1-1-.45-1-1-1Zm-4 2c-.55 0-1 .45-1 1s.45 1 1 1 1-.45 1-1-.45-1-1-1Zm-14 1c-.55 0-1 .45-1 1s.45 1 1 1 1-.45 1-1-.45-1-1-1Zm0 4c-.55 0-1 .45-1 1s.45 1 1 1 1-.45 1-1-.45-1-1-1Zm30 1c-.55 0-1 .45-1 1s.45 1 1 1 1-.45 1-1-.45-1-1-1Zm-4 1c-.55 0-1 .45-1 1s.45 1 1 1 1-.45 1-1-.45-1-1-1Zm-4 1c-.55 0-1 .45-1 1s.45 1 1 1 1-.45 1-1-.45-1-1-1Zm-22 1c-.55 0-1 .45-1 1s.45 1 1 1 1-.45 1-1-.45-1-1-1Zm18 0c-.55 0-1 .45-1 1s.45 1 1 1 1-.45 1-1-.45-1-1-1Zm-4 1c-.55 0-1 .45-1 1s.45 1 1 1 1-.45 1-1-.45-1-1-1Zm-29 1c-.55 0-1 .45-1 1s.45 1 1 1 1-.45 1-1-.45-1-1-1Zm15 2c-.55 0-1 .45-1 1s.45 1 1 1 1-.45 1-1-.45-1-1-1Zm-15 2c-.55 0-1 .45-1 1s.45 1 1 1 1-.45 1-1-.45-1-1-1Zm15 2c-.55 0-1 .45-1 1s.45 1 1 1 1-.45 1-1-.45-1-1-1Zm-15 2c-.55 0-1 .45-1 1s.45 1 1 1 1-.45 1-1-.45-1-1-1Zm29 0c-.55 0-1 .45-1 1s.45 1 1 1 1-.45 1-1-.45-1-1-1Zm4 0c-.55 0-1 .45-1 1s.45 1 1 1 1-.45 1-1-.45-1-1-1Zm4 0c-.55 0-1 .45-1 1s.45 1 1 1 1-.45 1-1-.45-1-1-1Zm4 0c-.55 0-1 .45-1 1s.45 1 1 1 1-.45 1-1-.45-1-1-1Zm4 0c-.55 0-1 .45-1 1s.45 1 1 1 1-.45 1-1-.45-1-1-1Zm4 0c-.55 0-1 .45-1 1s.45 1 1 1 1-.45 1-1-.45-1-1-1Zm-34 2c-.55 0-1 .45-1 1s.45 1 1 1 1-.45 1-1-.45-1-1-1Zm-15 2c-.55 0-1 .45-1 1s.45 1 1 1 1-.45 1-1-.45-1-1-1Zm15 2c-.55 0-1 .45-1 1s.45 1 1 1 1-.45 1-1-.45-1-1-1Zm-15 2c-.55 0-1 .45-1 1s.45 1 1 1 1-.45 1-1-.45-1-1-1Zm29 1c-.55 0-1 .45-1 1s.45 1 1 1 1-.45 1-1-.45-1-1-1Zm-14 1c-.55 0-1 .45-1 1s.45 1 1 1 1-.45 1-1-.45-1-1-1Zm18 0c-.55 0-1 .45-1 1s.45 1 1 1 1-.45 1-1-.45-1-1-1Zm4 1c-.55 0-1 .45-1 1s.45 1 1 1 1-.45 1-1-.45-1-1-1Zm4 1c-.55 0-1 .45-1 1s.45 1 1 1 1-.45 1-1-.45-1-1-1Zm4 1c-.55 0-1 .45-1 1s.45 1 1 1 1-.45 1-1-.45-1-1-1Zm-30 1c-.55 0-1 .45-1 1s.45 1 1 1 1-.45 1-1-.45-1-1-1Zm0 4c-.55 0-1 .45-1 1s.45 1 1 1 1-.45 1-1-.45-1-1-1Zm14 1c-.55 0-1 .45-1 1s.45 1 1 1 1-.45 1-1-.45-1-1-1Zm4 2c-.55 0-1 .45-1 1s.45 1 1 1 1-.45 1-1-.45-1-1-1Zm-18 1c-.55 0-1 .45-1 1s.45 1 1 1 1-.45 1-1-.45-1-1-1Zm22 1c-.55 0-1 .45-1 1s.45 1 1 1 1-.45 1-1-.45-1-1-1Zm4 2c-.55 0-1 .45-1 1s.45 1 1 1 1-.45 1-1-.45-1-1-1Z"/></symbol><symbol id="mute" viewBox="0 0 80 80"><path fill="currentColor" d="M39 7c-2.023 0-3.645 1.55-3.902 3.508L20.547 27H13c-2.2 0-4 1.8-4 4v18c0 2.2 1.8 4 4 4h7.547l14.55 16.492C35.356 71.45 36.978 73 39 73c2.2 0 4-1.8 4-4V11c0-2.2-1.8-4-4-4Zm0 2c1.117 0 2 .883 2 2v58c0 1.117-.883 2-2 2s-2-.883-2-2v-.379l-1.621-1.84c.176.14.394.219.621.219.55 0 1-.45 1-1s-.45-1-1-1-1 .45-1 1c0 .188.05.367.152.527L21.453 51H13c-1.117 0-2-.883-2-2V31c0-1.117.883-2 2-2h8.453l13.7-15.527A.975.975 0 0 0 35 14c0 .55.45 1 1 1s1-.45 1-1-.45-1-1-1a.995.995 0 0 0-.621.219L37 11.379V11c0-1.117.883-2 2-2Zm-3 8c-.55 0-1 .45-1 1s.45 1 1 1 1-.45 1-1-.45-1-1-1Zm0 4c-.55 0-1 .45-1 1s.45 1 1 1 1-.45 1-1-.45-1-1-1Zm0 4c-.55 0-1 .45-1 1s.45 1 1 1 1-.45 1-1-.45-1-1-1Zm0 4c-.55 0-1 .45-1 1s.45 1 1 1 1-.45 1-1-.45-1-1-1Zm15.223 1.809-1.414 1.414L57.586 40l-7.777 7.777 1.414 1.414L59 41.414l7.777 7.777 1.414-1.414L60.414 40l7.777-7.777-1.414-1.414L59 38.586ZM21 31c-.55 0-1 .45-1 1s.45 1 1 1 1-.45 1-1-.45-1-1-1Zm15 2c-.55 0-1 .45-1 1s.45 1 1 1 1-.45 1-1-.45-1-1-1Zm-15 2c-.55 0-1 .45-1 1s.45 1 1 1 1-.45 1-1-.45-1-1-1Zm15 2c-.55 0-1 .45-1 1s.45 1 1 1 1-.45 1-1-.45-1-1-1Zm-15 2c-.55 0-1 .45-1 1s.45 1 1 1 1-.45 1-1-.45-1-1-1Zm15 2c-.55 0-1 .45-1 1s.45 1 1 1 1-.45 1-1-.45-1-1-1Zm-15 2c-.55 0-1 .45-1 1s.45 1 1 1 1-.45 1-1-.45-1-1-1Zm15 2c-.55 0-1 .45-1 1s.45 1 1 1 1-.45 1-1-.45-1-1-1Zm-15 2c-.55 0-1 .45-1 1s.45 1 1 1 1-.45 1-1-.45-1-1-1Zm15 2c-.55 0-1 .45-1 1s.45 1 1 1 1-.45 1-1-.45-1-1-1Zm0 4c-.55 0-1 .45-1 1s.45 1 1 1 1-.45 1-1-.45-1-1-1Zm0 4c-.55 0-1 .45-1 1s.45 1 1 1 1-.45 1-1-.45-1-1-1Zm0 4c-.55 0-1 .45-1 1s.45 1 1 1 1-.45 1-1-.45-1-1-1Z"/></symbol><symbol id="save" viewBox="0 0 50 50"><path fill="currentColor" d="M25 2C15.398 2 7.488 9.105 6.187 18.406c2.7-3.101 7.5-7.105 13.5-8.406.5-.102 1.118.21 1.22.813.1.5-.212 1.085-.813 1.187C12.195 13.7 6.602 20.586 6 22.188V24c0 12.7 10.602 24 19 24 5.2 0 11.29-4.414 15.188-10.813-5.7 4-12.696 4.813-13.094 4.813H27c-.5 0-.898-.406-1-.906-.102-.5.305-.992.906-1.094.102 0 10.492-1.195 15.594-7.594 1-2.601 1.5-5.508 1.5-8.406v-3c0-10.5-8.5-19-19-19Zm0 14c7 0 14 4 14 9 0 3.5-4 4-6 4-2.898 0-5.8-2-8-2s-5.102 2-8 2c-2 0-6-.5-6-4 0-5 7-9 14-9Zm-9.188 4a1 1 0 0 0-.124 1.938l1.906.656A1.982 1.982 0 0 0 17 24a1.999 1.999 0 1 0 4 0c0-.105-.016-.21-.031-.313l.718.25a1.002 1.002 0 0 0 1.426-1.14.999.999 0 0 0-.8-.735l-6-2a.998.998 0 0 0-.5-.062Zm18.032 0c-.055.016-.106.04-.157.063l-6 2a.999.999 0 1 0 .625 1.875l.72-.25A2.066 2.066 0 0 0 29 24a1.999 1.999 0 1 0 4 0c0-.55-.23-1.043-.594-1.406l1.907-.657a.999.999 0 0 0 .656-1.183.995.995 0 0 0-1.125-.754ZM4.687 30.094C3.388 32.094 2 35.5 2 41c0 .602.398 1 1 1 2.3 0 3.992-1.613 5.094-3.813a27.749 27.749 0 0 1-3.406-8.093Zm4.625 10c-1 1.601-2.218 2.71-3.718 3.312.5.801 1.093 1.282 1.093 1.282.2.199.418.312.72.312.198 0 .398-.086.5-.188.1-.101 1.6-1.113 2.5-3.312-.4-.398-.696-.906-1.095-1.406Z"/></symbol><symbol id="load" viewBox="0 0 50 50"><path fill="currentColor" d="M25 2C14.582 2 6.102 10.418 6 20.813a.668.668 0 0 0 0 .125V21c-.004.05-.004.105 0 .156V24c0 1.426.156 2.84.406 4.219-.46.394-1.32 1.23-2.125 2.656C3.121 32.925 2 36.188 2 41c0 .55.45 1 1 1 .617 0 1.188-.129 1.719-.344.554 1.89 2 3.094 2 3.094a1 1 0 0 0 1.187.094S10.652 43 10.97 39c.398.566.82 1.102 1.25 1.625C15.852 45.043 20.535 48 25 48s9.148-2.957 12.781-7.375a28.316 28.316 0 0 0 4.157-6.906c.019-.032.042-.063.062-.094a.984.984 0 0 0 .188-.469C43.324 30.29 44 27.184 44 24v-3c0-10.48-8.52-19-19-19Zm0 2c9.402 0 17 7.598 17 17v3c0 2.996-.688 5.957-1.813 8.688C35.367 39.828 26.97 40 26.97 40c-.551.016-.985.48-.969 1.031.016.551.48.985 1.031.969 0 0 4.762-.09 9.469-3.031-.098.12-.184.254-.281.375C32.852 43.44 28.543 46 25 46c-3.543 0-7.852-2.559-11.219-6.656a26.281 26.281 0 0 1-4.375-7.688c-.02-.05-.043-.105-.062-.156C8.496 29.11 8 26.566 8 24v-2.813c.219-.699 1.324-2.683 3.313-4.562a18.601 18.601 0 0 1 8.812-4.656c.55-.07.945-.574.875-1.125a1.01 1.01 0 0 0-1.125-.875h-.094a.88.88 0 0 0-.093.031 20.612 20.612 0 0 0-9.75 5.156c-.497.469-.942.918-1.344 1.375C10.55 9.305 17.148 4 25 4Zm0 11c-3.68 0-7.348 1.043-10.156 2.781C12.035 19.52 10 22.035 10 25c0 2.133 1.371 3.559 2.844 4.219 1.472.66 3.074.781 4.156.781 1.7 0 3.281-.559 4.656-1.063C23.031 28.434 24.234 28 25 28s1.969.434 3.344.938C29.719 29.44 31.3 30 33 30c1.082 0 2.684-.121 4.156-.781C38.63 28.559 40 27.133 40 25c0-2.965-2.035-5.48-4.844-7.219C32.348 16.043 28.68 15 25 15Zm0 2c3.297 0 6.648.953 9.094 2.469C36.539 20.984 38 22.977 38 25c0 1.371-.629 1.945-1.656 2.406-1.028.461-2.426.594-3.344.594-1.25 0-2.621-.441-3.969-.938C27.684 26.567 26.387 26 25 26c-1.387 0-2.684.566-4.031 1.063C19.62 27.558 18.25 28 17 28c-.918 0-2.316-.133-3.344-.594C12.63 26.946 12 26.371 12 25c0-2.023 1.46-4.016 3.906-5.531C18.352 17.953 21.703 17 25 17Zm-9.188 3a1 1 0 0 0-.124 1.938l1.906.656A1.982 1.982 0 0 0 17 24a1.999 1.999 0 1 0 4 0c0-.105-.016-.21-.031-.313l.718.25a1.002 1.002 0 0 0 1.426-1.14.999.999 0 0 0-.8-.735l-6-2a.998.998 0 0 0-.5-.062Zm18.032 0c-.055.016-.106.04-.157.063l-6 2a.999.999 0 1 0 .625 1.875l.72-.25A2.066 2.066 0 0 0 29 24a1.999 1.999 0 1 0 4 0c0-.55-.23-1.043-.594-1.406l1.907-.657a.999.999 0 0 0 .656-1.183.995.995 0 0 0-1.125-.754ZM6.937 30.563c.145.511.329 1 .5 1.5-.023 1.914-.492 3.984-1.28 5.5-.548 1.05-1.231 1.66-2 2.03.21-3.585 1.011-6.195 1.874-7.718.328-.578.633-.977.907-1.313Zm1.844 5.75c.121.593.219 1.242.219 1.937 0 2.637-.934 3.71-1.563 4.281-.406-.52-.828-1.222-.906-2.062.563-.559 1.028-1.242 1.407-1.969.355-.68.617-1.422.843-2.188Z"/></symbol><symbol id="complexity" viewBox="0 0 50 50"><path fill="currentColor" d="M25 0c-1.105 0-2 .895-2 2 0 .46.172.879.438 1.219C17.867 9.469 7.874 11 7.874 11a1 1 0 0 0-.531 1.75s.894.8 2.125 1.594c1.23.793 2.789 1.656 4.437 1.656h22.188c1.648 0 3.207-.863 4.437-1.656 1.23-.793 2.125-1.594 2.125-1.594a1 1 0 0 0-.531-1.75s-9.992-1.531-15.563-7.781C26.828 2.879 27 2.46 27 2c0-1.105-.895-2-2-2Zm0 4.344c4.48 5.172 11.176 7.379 14.625 8.187-.098.067-.082.059-.188.125-1.093.707-2.492 1.344-3.343 1.344H13.906c-.851 0-2.25-.637-3.344-1.344-.105-.066-.09-.058-.187-.125C13.825 11.723 20.52 9.516 25 4.344ZM13 17v3.375c-.316.234-.95.586-1.75.875-.95.344-2.117.648-3.219.906-2.199.512-4.187.813-4.187.813a1.046 1.046 0 0 0-.82.652c-.137.348-.075.746.163 1.035 0 0 2.739 3.375 7 3.375h29.5c4.262 0 7-3.375 7-3.375a1.043 1.043 0 0 0-.624-1.687s-1.981-.301-4.157-.813c-1.086-.258-2.215-.562-3.156-.906-.79-.29-1.434-.64-1.75-.875V17h-2v2.969H15V17Zm1.125 5.031h21.75a8.055 8.055 0 0 0 2.156 1.188c1.067.386 2.27.699 3.407.968 1.156.274 1.39.293 2.187.438-.96.676-2.316 1.344-3.938 1.344h-29.5c-1.601 0-2.945-.672-3.906-1.344.809-.145 1.043-.164 2.219-.438 1.148-.269 2.363-.582 3.438-.968a8.092 8.092 0 0 0 2.187-1.188ZM10 29v3.5C6.434 35.016.75 36.531.75 36.531a1.006 1.006 0 0 0-.676.598c-.117.297-.086.633.082.902 0 0 2.016 2.969 6.344 2.969h36.906c4.328 0 6.344-2.969 6.344-2.969.168-.27.2-.605.082-.902a1.006 1.006 0 0 0-.676-.598S43.566 35.023 40 32.5V29h-2v3H12v-3Zm1.25 5h27.5c3.145 2.281 6.563 3.418 8.313 3.938-.727.523-1.868 1.062-3.657 1.062H6.5c-1.734 0-2.895-.523-3.625-1.031 1.781-.52 5.227-1.692 8.375-3.969ZM7 42v7c0 .55.45 1 1 1h34c.55 0 1-.45 1-1v-7h-2v6h-9v-4c0-.55-.45-1-1-1H18.906A.996.996 0 0 0 18 44v4H9v-6Zm13 3h10v3H20Z"/></symbol><symbol id="drawing" viewBox="0 0 30 30"><path fill="currentColor" d="M15 3C6.983 3 3 9 3 17c0 3.78 1.751 6.496 4.482 8.137A1 1 0 0 0 8 27h14a1 1 0 0 0 .518-1.863C25.248 23.497 27 20.779 27 17c0-8-3.983-14-12-14zm0 2c4.971 0 9 3.201 9 7.15 0 5.876-4.029 4.85-9 4.85s-9 .998-9-4.85C6 8.201 10.029 5 15 5zm-4 3a2 2 0 1 0-.001 3.999A2 2 0 0 0 11 8zm8 0a2 2 0 0 0 0 4 2 2 0 0 0 0-4zm-8 1a1 1 0 1 1 0 2 1 1 0 0 1 0-2zm1.5 4c-1.943 0-1.522 1-4.5 1 0 .828 1.03 2 4.5 2a1.5 1.5 0 0 0 0-3zm5 0a1.5 1.5 0 0 0 0 3c3.47 0 4.5-1.172 4.5-2-2.978 0-2.557-1-4.5-1zM7.176 17.018a.998.998 0 0 1 .66 1.527C6.924 19.923 6 21 6 21s-1.238-1.678.156-3.545c.248-.332.643-.5 1.02-.437zm15.648 0c.377-.063.77.106 1.018.437C25.237 19.322 24 21 24 21s-.924-1.077-1.836-2.455a.999.999 0 0 1 .66-1.527zm-12.767 1.988c.124.003.25.032.375.092.498.239.732.848.47 1.334C9.85 22.382 9 24 9 24s-1.544-2.016.098-4.432c.232-.342.586-.57.959-.562zm9.886 0c.373-.009.726.22.96.562C22.543 21.984 21 24 21 24s-.85-1.617-1.902-3.568c-.262-.486-.028-1.095.47-1.334a.91.91 0 0 1 .375-.092zM15 20a2 2 0 1 1 .001 3.999A2 2 0 0 1 15 20z"/></symbol><symbol id="light" viewBox="0 0 80 80"><path fill="currentColor" d="m39.94 1.865-.864 1.623-5.812 10.918L21 7.213V21H7.19l7.353 12.217-12.684 6.722 12.596 6.975L7.19 59H21v13.707l12.172-7.166 6.783 12.51 6.822-12.512L59 72.703V59h13.695l-7.02-12.086 12.35-6.975-12.437-6.722L72.698 21H59V7.18L46.96 14.5 39.94 1.865zm.037 4.186 6.246 11.24L57 10.736V23h12.219L62.82 33.996l11.07 5.983-10.96 6.19L69.22 57H57v12.213L46.008 62.77 39.96 73.863l-6.02-11.095L23 69.209V57H10.727l6.51-10.83-11.18-6.191 11.289-5.983L10.726 23H23V10.703l11.05 6.483L39.978 6.05zm-2.065 8.953c-.55.05-.948.53-.908 1.08a.99.99 0 0 0 1.078.91c.52-.04.922-.48.922-.99a.281.281 0 0 0-.012-.09.986.986 0 0 0-1.08-.91zm4.162.004a.983.983 0 0 0-1.07.91.99.99 0 0 0 .91 1.078c.55.04 1.03-.37 1.08-.92v-.08a.99.99 0 0 0-.92-.988zM29.64 17.234c-.124.009-.25.04-.37.098a.983.983 0 0 0-.468 1.324.991.991 0 0 0 1.328.479c.496-.241.707-.835.475-1.336l-.041-.07a.995.995 0 0 0-.924-.495zm20.707 0c-.388-.014-.765.2-.946.573a.991.991 0 0 0 .479 1.328 1 1 0 0 0 1.293-.395.262.262 0 0 0 .035-.084.985.985 0 0 0-.477-1.328 1.003 1.003 0 0 0-.384-.094zM40 19c-11.586 0-21 9.414-21 21s9.414 21 21 21 21-9.414 21-21-9.414-21-21-21zm-13.582.246a.99.99 0 0 0-.75.168c-.45.32-.556.937-.246 1.393.31.455.94.565 1.39.246a1 1 0 0 0 .3-1.319c-.016-.026-.03-.053-.053-.074a.982.982 0 0 0-.641-.414zm27.166.006a.983.983 0 0 0-.639.416.992.992 0 0 0 .246 1.39 1.013 1.013 0 0 0 1.397-.253l.04-.07a.991.991 0 0 0-.3-1.317.98.98 0 0 0-.744-.166zM40 21c10.505 0 19 8.495 19 19s-8.495 19-19 19-19-8.495-19-19 8.495-19 19-19zm-19.613 4.246a.99.99 0 0 0-.967.424.981.981 0 0 0 .25 1.38.993.993 0 0 0 1.39-.245 1.014 1.014 0 0 0-.253-1.397 1.686 1.686 0 0 1-.07-.039.993.993 0 0 0-.35-.123zm39.552.01c-.25-.044-.52.007-.748.162a.992.992 0 0 0-.246 1.39 1 1 0 0 0 1.319.301c.026-.015.053-.03.074-.054a.986.986 0 0 0 .244-1.39.994.994 0 0 0-.643-.41zM18.275 28.69a.993.993 0 0 0-.947.577 1.004 1.004 0 0 0 .479 1.328.994.994 0 0 0 1.33-.479 1 1 0 0 0-.397-1.293c-.025-.014-.05-.029-.082-.035a.98.98 0 0 0-.383-.098zm43.45.008a.986.986 0 0 0-.383.1.992.992 0 0 0-.479 1.328c.241.495.837.705 1.338.473l.07-.04a.993.993 0 0 0 .395-1.292.985.985 0 0 0-.941-.569zm2.191 8.305a.99.99 0 0 0-.91 1.078c.04.52.48.922.99.922.03 0 .06-.002.09-.012.55-.04.96-.52.91-1.08a1.004 1.004 0 0 0-1.08-.908zm-47.92.002a.99.99 0 0 0-.988.92c-.05.55.36 1.03.91 1.07a.99.99 0 0 0 1.078-.91c.04-.55-.37-1.03-.92-1.08h-.08zm.008 3.99a.281.281 0 0 0-.09.012c-.55.04-.96.52-.91 1.08.05.55.53.948 1.08.908a.99.99 0 0 0 .91-1.078c-.04-.52-.48-.922-.99-.922zm48.078.008a.99.99 0 0 0-1.078.91c-.04.55.37 1.03.92 1.08h.08a.99.99 0 0 0 .988-.92.983.983 0 0 0-.91-1.07zM18.15 49.227c-.13.004-.26.034-.386.091a1.267 1.267 0 0 0-.069.04.993.993 0 0 0-.4 1.29.984.984 0 0 0 1.322.475.991.991 0 0 0 .483-1.326 1.012 1.012 0 0 0-.95-.57zm43.625.158a.996.996 0 0 0-.947.57c-.228.47-.05 1.038.39 1.295.027.014.052.03.083.035a.988.988 0 0 0 1.332-.472 1.005 1.005 0 0 0-.858-1.428zm-41.736 3.31a.977.977 0 0 0-.352.12.27.27 0 0 0-.072.054.989.989 0 0 0-.252 1.39c.318.453.934.56 1.39.25a.994.994 0 0 0 .253-1.39 1.003 1.003 0 0 0-.967-.424zm39.498.157a.977.977 0 0 0-.644.41 1.013 1.013 0 0 0 .248 1.396l.07.041a.992.992 0 0 0 1.318-.295.984.984 0 0 0-.246-1.383.993.993 0 0 0-.746-.17zM25.988 58.73a1.011 1.011 0 0 0-.646.41l-.041.07a.992.992 0 0 0 .295 1.32.984.984 0 0 0 1.383-.247.99.99 0 0 0-.99-1.553zm27.881.1a.997.997 0 0 0-.75.164 1.002 1.002 0 0 0-.305 1.319.27.27 0 0 0 .055.072.989.989 0 0 0 1.39.252c.453-.318.56-.934.25-1.39a.98.98 0 0 0-.64-.417zm-24.19 1.9a1 1 0 0 0-.929.489c-.014.026-.03.05-.035.082a.988.988 0 0 0 .473 1.332c.5.234 1.087.02 1.33-.475a.991.991 0 0 0-.473-1.33.994.994 0 0 0-.365-.098zm20.503.075a.973.973 0 0 0-.385.095 1.014 1.014 0 0 0-.479 1.336c.01.017.023.043.04.069a.993.993 0 0 0 1.29.4.984.984 0 0 0 .475-1.322.995.995 0 0 0-.941-.578zm-12.096 2.199c-.55-.04-1.03.37-1.08.92v.08c0 .51.39.948.92.988a.983.983 0 0 0 1.07-.91.99.99 0 0 0-.91-1.078zm3.832.002c-.52.04-.922.48-.922.99 0 .03.002.06.012.09.04.55.52.96 1.08.91.55-.05.948-.53.908-1.08a.99.99 0 0 0-1.078-.91z"/></symbol><symbol id="dark" viewBox="0 0 80 80"><path fill="currentColor" d="m30.984 8.113-2.789 1.07C15.801 13.934 7 25.946 7 40c0 18.215 14.785 33 33 33 14.055 0 26.066-8.8 30.816-21.195l1.07-2.79-2.53 1.583A28.83 28.83 0 0 1 54 55c-16.027 0-29-12.973-29-29a28.83 28.83 0 0 1 4.402-15.355ZM26.25 12.31C24.203 16.445 23 21.074 23 26c0 17.11 13.89 31 31 31 4.926 0 9.555-1.203 13.691-3.25C62.621 63.95 52.171 71 40 71 22.867 71 9 57.133 9 40c0-12.172 7.05-22.621 17.25-27.691Zm-5.328 7.597c-.27 0-.531.106-.719.297a.995.995 0 0 0 0 1.41.995.995 0 0 0 1.41 0 .995.995 0 0 0 0-1.41.983.983 0 0 0-.691-.297ZM17.566 24a.993.993 0 0 0-.847.441 1 1 0 0 0 .277 1.387 1 1 0 1 0 .57-1.828Zm-2.488 4.668a.995.995 0 0 0-.945.617c-.211.512.031 1.094.539 1.309a1.002 1.002 0 0 0 1.308-.543.997.997 0 0 0-.543-1.305.943.943 0 0 0-.359-.078Zm-1.531 5.066a1 1 0 1 0 .953 1.192 1 1 0 0 0-.781-1.176c-.059-.008-.114-.016-.172-.016ZM13 39c-.55 0-1 .45-1 1s.45 1 1 1 1-.45 1-1-.45-1-1-1Zm.523 5.266a1.001 1.001 0 1 0 .191 1.984 1.003 1.003 0 0 0-.191-1.984Zm1.54 5.066c-.133 0-.266.023-.391.074a1.006 1.006 0 0 0-.54.543c-.1.246-.1.52-.003.766a.998.998 0 0 0 1.309.539.98.98 0 0 0 .542-.54 1 1 0 0 0-.918-1.382Zm2.5 4.668a.974.974 0 0 0-.567.168 1.004 1.004 0 0 0-.277 1.387c.308.457.93.582 1.39.273A.999.999 0 0 0 17.562 54Zm3.359 4.094a.988.988 0 0 0-.719.293.995.995 0 0 0 0 1.41.995.995 0 0 0 1.41 0 .995.995 0 0 0 0-1.41.963.963 0 0 0-.691-.293Zm38.183 0a.988.988 0 0 0-.718.293.995.995 0 0 0 0 1.41.995.995 0 0 0 1.41 0 .995.995 0 0 0 0-1.41.963.963 0 0 0-.692-.293ZM25.02 61.449a.993.993 0 0 0-.848.442 1 1 0 1 0 .848-.441Zm29.992 0a1 1 0 0 0-.567.164.997.997 0 0 0-.273 1.39c.305.458.926.583 1.387.278.457-.308.582-.93.273-1.39a.983.983 0 0 0-.82-.442Zm-25.32 2.492a.999.999 0 0 0-.946.621 1 1 0 1 0 1.305-.542 1.022 1.022 0 0 0-.36-.079Zm20.648 0c-.133 0-.266.028-.387.079a1.006 1.006 0 0 0-.547 1.308 1.004 1.004 0 0 0 1.852 0 1 1 0 0 0 0-.766.999.999 0 0 0-.918-.62Zm-15.578 1.54a1 1 0 1 0-.053 2 1 1 0 0 0 .053-2Zm10.508.003a.808.808 0 0 0-.196.016c-.543.11-.894.633-.789 1.176a1.01 1.01 0 0 0 1.18.79c.258-.056.488-.208.637-.427a1 1 0 0 0-.832-1.555ZM40 66c-.55 0-1 .45-1 1s.45 1 1 1 1-.45 1-1-.45-1-1-1Z"/></symbol><symbol id="reset" viewBox="0 0 30 30"><path fill="currentColor" d="M15 3C9.477 3 5 7.396 5 12.818c0 .4.104 1.845.352 3.409a5.651 5.651 0 0 0-1.663 1.54C2.811 18.98 2 20.966 2 24a1 1 0 1 0 2 0c0-2.239.48-3.634 1-4.543V26a1 1 0 1 0 2 0v-4.73C8.751 24.39 11.957 27 15 27c3.65 0 7.541-3.75 8.865-7.639l.024.002C24.759 17.14 25 13.495 25 12.818 25 7.396 20.523 3 15 3zm0 8s7 .077 7 4c0 2.055-2 2-2.5 2-2.5 0-2.5-1-4.5-1s-2 1-4.5 1c-.181 0-2.5 0-2.5-2 0-3.923 7-4 7-4zm-3 2a1 1 0 0 0-1 1 1 1 0 0 0 1 1 1 1 0 0 0 1-1 1 1 0 0 0-1-1zm6 0a1 1 0 0 0-1 1 1 1 0 0 0 1 1 1 1 0 0 0 1-1 1 1 0 0 0-1-1z"/></symbol><symbol id="random" viewBox="0 0 50 50"><path fill="currentColor" d="m46.336 42.041-3.277-.983c.885-2.012 2.769-6.628 3.917-11.844.647-2.937-.357-5.838-2.716-8.152l1.753-1.15c.153.053.315.088.487.088a1.5 1.5 0 0 0 1.5-1.5c0-.334-.113-.64-.298-.889l-.001-.003-.007-.007a1.528 1.528 0 0 0-.27-.275l-.001-.001A1.489 1.489 0 0 0 46.5 17c-.709 0-1.299.493-1.456 1.154l-2.393 1.57c-.281-.199-.57-.393-.876-.578-.013-.008-.028-.008-.041-.015-.046-.117-.087-.236-.136-.351.035-.027.077-.041.11-.073l3.715-3.715c.025.002.05.008.077.008a1.5 1.5 0 1 0-1.5-1.5c0 .027.006.052.008.078l-3.365 3.365c-2.06-3.335-5.556-5.928-9.669-7.133.006-.082.026-.154.026-.239 0-1.671-1.604-3.337-3.638-4.115l.606-.909A.995.995 0 0 0 27.14 3h-4.281a.996.996 0 0 0-.828 1.547l.606.909C20.604 6.235 19 7.9 19 9.571c0 .065.016.119.019.182-4.157 1.161-7.704 3.732-9.805 7.048l-3.223-3.223c.003-.026.009-.051.009-.078A1.5 1.5 0 1 0 4.5 15c.027 0 .052-.006.078-.008l3.652 3.652c-.102.234-.192.472-.28.711-.196.126-.39.253-.576.385l-2.419-1.586a1.492 1.492 0 0 0-2.649-.553l-.007.007-.001.003A1.485 1.485 0 0 0 2 18.5 1.5 1.5 0 0 0 3.5 20c.172 0 .334-.035.488-.088l1.777 1.166c-2.371 2.319-3.385 5.215-2.741 8.137 1.148 5.216 3.06 9.832 3.96 11.846l-3.258.978c-1.052.301-1.763 1.292-1.653 2.307.1.925.849 1.589 1.927 1.654h9.063c.407 0 .774-.18 1.035-.505.642-.808.561-2.669-.234-6.691.552.658 1.307 1.139 2.118 1.301.172.034.352.051.538.051 1.16 0 2.529-.649 3.41-1.609 1.537.95 3.228 1.453 4.949 1.453 1.723 0 3.421-.504 4.962-1.457.882.963 2.252 1.613 3.414 1.613.185 0 .365-.016.534-.055 1.023-.204 1.966-.91 2.509-1.847-.897 4.404-1.015 6.398-.344 7.241.259.325.626.505 1.033.505l9.125-.003c1.015-.063 1.764-.727 1.865-1.653.11-1.015-.601-2.006-1.641-2.303zM22.563 9.685c.812.283 1.625 1.029 2.437 1.029s1.625-.746 2.437-1.029A4.91 4.91 0 0 1 28 12c0 2.206-1.346 4-3 4s-3-1.794-3-4c0-.865.212-1.66.563-2.315zM12.542 44l-8.327-.014c.022-.009.046-.019.074-.027l4.375-1.313a1.002 1.002 0 0 0 .611-1.398c-.028-.058-2.842-5.855-4.297-12.463-.588-2.67.656-4.74 2.058-6.151-.053.339-.095.68-.108 1.016-.078 2.118.499 4.193 1.816 6.528.476.844 1.115 1.766 1.757 2.628l.021.092c.772 3.338 2.16 9.337 2.02 11.102zm8.261-7.29c.133-1.286-.543-2.508-.92-3.074-.458-.688-1.392-1.364-1.916-1.712a3.089 3.089 0 0 1-.02-.069 22.355 22.355 0 0 0 13.797.108c-.532.357-1.411 1.004-1.855 1.669-.377.565-1.052 1.786-.92 3.071-2.547 1.658-5.618 1.658-8.166.007zm4.114-11.767c1.211 1.877 3.544 3.807 7.471 3.807l.159-.001c.091-.004.159-.018.243-.025l-.279.88c-.034.01-.069.005-.103.019-4.538 1.82-10.427 1.8-14.943-.052-.075-.031-.153-.033-.23-.045l-.257-.811c.115.011.214.029.342.035l.156.001c3.904 0 6.232-1.931 7.441-3.808zm10.239 9.766a1 1 0 0 0-.251.661c-.001.433-.065 1.271-.235 1.679-.183.44-.66.969-1.273 1.092-.524.096-1.747-.392-2.284-1.199-.491-.736.279-1.965.438-2.203.259-.388 1.106-1.009 1.626-1.326a1 1 0 0 0 .439-.573c.531-1.812 2.053-6.778 2.725-7.979a.995.995 0 0 0-.398-1.369c-1.439-.775-2.812-2.385-3.48-3.553-.571-1-.685-1.443-.688-1.443v.001a1 1 0 0 0-1.984.25c.027.21.17.844.937 2.185.705 1.234 1.993 2.788 3.464 3.822a34.411 34.411 0 0 0-.675 1.795c-.01.004-.021.003-.031.007-.003.002-.369.165-.998.194l-.132.001c-5.33 0-6.418-4.28-6.465-4.476-.012-.052-.044-.092-.063-.14-.026-.065-.046-.131-.086-.189-.04-.06-.094-.105-.145-.154-.04-.039-.075-.082-.122-.114-.071-.049-.152-.076-.234-.105-.036-.013-.065-.038-.104-.047h-.018c-.073-.015-.148-.007-.224-.006-.059.001-.118-.007-.175.004-.009.002-.017-.001-.025.001-.056.013-.1.047-.151.068-.061.025-.124.044-.179.08-.061.041-.107.095-.157.147-.039.041-.083.075-.115.122-.045.066-.069.141-.097.216-.016.042-.044.076-.055.122-.042.184-1.075 4.473-6.431 4.473l-.131-.001c-.65-.03-1.015-.188-1.016-.188-.037-.018-.077-.017-.116-.031-.231-.66-.46-1.274-.668-1.775 1.47-1.034 2.759-2.588 3.464-3.822.767-1.342.911-1.975.937-2.185a.983.983 0 0 0-.829-1.091 1.022 1.022 0 0 0-1.148.797c0 .004-.098.441-.695 1.486-.668 1.168-2.042 2.778-3.481 3.553a1.001 1.001 0 0 0-.399 1.369c.672 1.2 2.195 6.166 2.725 7.979a.997.997 0 0 0 .439.573c.52.317 1.368.938 1.626 1.326.16.238.929 1.467.438 2.203-.537.806-1.768 1.3-2.284 1.199-.613-.123-1.089-.653-1.273-1.092-.17-.408-.234-1.246-.235-1.679a1.005 1.005 0 0 0-.251-.661c-.018-.021-1.179-1.339-2.352-2.892a.908.908 0 0 0-.109-.144c-.616-.822-1.226-1.699-1.667-2.481-1.128-2-1.623-3.739-1.559-5.472.05-1.362.645-3.006.766-3.328.028-.064.06-.125.074-.193 1.442-4.04 5.22-7.275 9.864-8.546.12.183.248.347.375.492C20.073 15.389 22.285 18 25 18s4.927-2.611 4.994-5.851c.115-.131.229-.281.339-.443 4.603 1.321 8.331 4.578 9.734 8.654.2.512.73 2.115.777 3.36.063 1.734-.432 3.472-1.56 5.472-1.306 2.316-4.1 5.485-4.128 5.517zM37.51 44c-.14-1.764 1.247-7.761 2.018-11.097l.08-.345c.018-.077.007-.152.006-.227.521-.721 1.023-1.465 1.413-2.157 1.317-2.335 1.894-4.409 1.815-6.528a9.387 9.387 0 0 0-.155-1.32c1.507 1.404 2.971 3.576 2.336 6.459-1.456 6.612-4.222 12.411-4.25 12.469a1 1 0 0 0 .614 1.392l4.388 1.316a.4.4 0 0 1 .093.038H37.51z"/></symbol><symbol id="view" viewBox="0 0 32 32"><path fill="currentColor" d="M16 3c-3.074 0-5.824 1.54-7.156 3.844L4.375 5.062l-.75 1.875 4.5 1.813A6.28 6.28 0 0 0 8 10v.531c-2.719 2-5 5.578-5 11.469v.719l.688.218 6 2 .03-.062c.134.223.259.445.407.656C11.48 27.473 13.52 29 16 29c2.477 0 4.516-1.504 5.875-3.438.152-.218.27-.457.406-.687l.032.063 6-2 .687-.22V22c0-5.914-2.281-9.504-5-11.5V10c0-.43-.043-.844-.125-1.25l4.5-1.813-.75-1.875-4.469 1.782C21.824 4.539 19.074 3 16 3Zm0 2c3.098 0 5.527 1.914 5.938 4.281C19.523 8.168 17.18 8 16 8c-1.184 0-3.523.191-5.938 1.313C10.457 6.93 12.892 5 16 5Zm0 5c1.18 0 4.016.254 6.438 1.844 2.312 1.515 4.316 4.246 4.5 9.469L23.405 22.5c.387-1.16.594-2.352.594-3.5 0-1.484-.566-2.7-1.375-3.563s-1.809-1.402-2.781-1.75C17.894 12.992 16 13 16 13s-1.898.012-3.844.719c-.972.351-1.976.89-2.781 1.75A5.106 5.106 0 0 0 8 19c0 1.14.207 2.344.594 3.5l-3.531-1.188c.183-5.203 2.187-7.914 4.5-9.437C11.988 10.281 14.823 10 16 10Zm0 5s1.605.008 3.156.563c.778.277 1.528.675 2.032 1.218.503.543.812 1.203.812 2.219 0 1.738-.645 3.832-1.75 5.406C19.145 25.98 17.668 27 16 27c-1.664 0-3.145-1.012-4.25-2.594C10.645 22.824 10 20.711 10 19c0-.988.305-1.617.813-2.156.507-.54 1.253-.969 2.03-1.25C14.399 15.027 16 15 16 15Zm-4.063 3c-.519.027-.937.125-.937.125s.43 1.215 1.438 1.656c1.007.442 2.562.094 2.562.094s-.484-1.238-1.438-1.656c-.476-.211-1.105-.246-1.624-.219Zm8.126 0c-.52-.027-1.149.008-1.625.219-.954.418-1.438 1.656-1.438 1.656s1.555.348 2.563-.094C20.57 19.34 21 18.125 21 18.125s-.418-.098-.938-.125Z"/></symbol></svg>
